<svg id="Layer_1" data-name="Layer 1" xmlns="http://www.w3.org/2000/svg" viewBox="0 0 400 400"><defs><style>.cls-1{fill:#1c2c5d;}.cls-2{fill:#96213d;}</style></defs><path class="cls-1" d="M200,400A199.94,199.94,0,0,1,58.58,58.58,199.39,199.39,0,0,1,200,0a201.15,201.15,0,0,1,48.54,5.93,6.25,6.25,0,0,1-3,12.12A188.36,188.36,0,0,0,200,12.49C96.61,12.49,12.49,96.61,12.49,200S96.61,387.51,200,387.51,387.51,303.39,387.51,200a188.47,188.47,0,0,0-6.11-47.68,6.24,6.24,0,0,1,12.08-3.17A199.93,199.93,0,0,1,200,400Z"/><path class="cls-1" d="M200,337.65a137.65,137.65,0,1,1,0-275.3,138.3,138.3,0,0,1,33.3,4.05,6.24,6.24,0,0,1-3,12.12,125.07,125.07,0,1,0,91,90.62,6.25,6.25,0,0,1,12.11-3.07A137.61,137.61,0,0,1,200,337.65Z"/><path class="cls-1" d="M200,277.2a77.2,77.2,0,1,1,0-154.4A77.63,77.63,0,0,1,218.51,125a6.25,6.25,0,0,1-3,12.13,64.61,64.61,0,1,0,47.1,46.48,6.24,6.24,0,0,1,12.08-3.14A77.21,77.21,0,0,1,200,277.2Z"/><path class="cls-2" d="M308,148a6.33,6.33,0,0,1-1-.07L263.67,142a7.15,7.15,0,0,1-6.11-6.11l-5.91-43.36a7.09,7.09,0,0,1,2-6L324.6,15.61a7.14,7.14,0,0,1,12,3.68l7.1,36.54,36.54,7.1A7.14,7.14,0,0,1,384,75L313,145.91A7.1,7.1,0,0,1,308,148Zm-37-19.39,34.48,4.71,58.94-58.94L336.3,68.92a7.13,7.13,0,0,1-5.64-5.64L325.2,35.19,266.26,94.13Z"/><path class="cls-2" d="M198.1,208.61a7.14,7.14,0,0,1-5-12.18l66.38-66.38a7.13,7.13,0,1,1,10.09,10.09l-66.38,66.38A7.08,7.08,0,0,1,198.1,208.61Z"/></svg>