<svg id="Layer_1" data-name="Layer 1" xmlns="http://www.w3.org/2000/svg" viewBox="0 0 400 400"><defs><style>.cls-1{fill:#96213d;}.cls-2{fill:#1c2c5d;}</style></defs><path class="cls-1" d="M200,273.66a73.66,73.66,0,1,1,52.09-21.57A73.18,73.18,0,0,1,200,273.66Zm0-134.42A60.76,60.76,0,1,0,260.76,200,60.83,60.83,0,0,0,200,139.24Z"/><path class="cls-2" d="M200,229.26A29.26,29.26,0,1,1,229.26,200,29.3,29.3,0,0,1,200,229.26ZM200,182a18,18,0,1,0,18,18A18,18,0,0,0,200,182Z"/><path class="cls-2" d="M200,275.87a283.72,283.72,0,0,1-77.19-11.19,361.72,361.72,0,0,1-62.76-24.52c-35.31-17.62-57-35-57.95-35.77a5.64,5.64,0,0,1,0-8.78c.91-.74,22.64-18.15,58-35.77a362.58,362.58,0,0,1,62.76-24.53A284.08,284.08,0,0,1,200,124.13a284.08,284.08,0,0,1,77.19,11.18A362.58,362.58,0,0,1,340,159.84c35.31,17.62,57,35,57.95,35.77a5.64,5.64,0,0,1,0,8.78c-.91.74-22.64,18.15-57.95,35.77a361.72,361.72,0,0,1-62.76,24.52A283.72,283.72,0,0,1,200,275.87ZM15,200a366.91,366.91,0,0,0,50.32,30.19c31.48,15.69,80.4,34.39,134.64,34.39s103.16-18.7,134.64-34.39A366.91,366.91,0,0,0,385,200a366.91,366.91,0,0,0-50.32-30.19c-31.48-15.69-80.4-34.39-134.64-34.39S96.84,154.12,65.36,169.81A366.91,366.91,0,0,0,15,200Z"/><path class="cls-2" d="M200,380.42a5.64,5.64,0,0,1-5.65-5.64V318.53a5.65,5.65,0,0,1,11.3,0v56.25A5.64,5.64,0,0,1,200,380.42Z"/><path class="cls-2" d="M200,87.11a5.64,5.64,0,0,1-5.65-5.64V25.22a5.65,5.65,0,0,1,11.3,0V81.47A5.64,5.64,0,0,1,200,87.11Z"/><path class="cls-2" d="M107.8,110.44A5.63,5.63,0,0,1,104,109L60.25,69.2a5.64,5.64,0,0,1,7.59-8.35l43.76,39.77a5.64,5.64,0,0,1-3.8,9.82Z"/><path class="cls-2" d="M336,339.58a5.62,5.62,0,0,1-3.79-1.46L288.4,298.34A5.65,5.65,0,1,1,296,290l43.75,39.77a5.64,5.64,0,0,1-3.8,9.82Z"/><path class="cls-2" d="M292.2,110.44a5.64,5.64,0,0,1-3.8-9.82l43.76-39.77a5.64,5.64,0,0,1,7.59,8.35L296,109A5.63,5.63,0,0,1,292.2,110.44Z"/><path class="cls-2" d="M64.05,339.58a5.64,5.64,0,0,1-3.8-9.82L104,290a5.65,5.65,0,1,1,7.6,8.35L67.84,338.12A5.62,5.62,0,0,1,64.05,339.58Z"/></svg>